<?xml version="1.0" standalone="no"?>
<!DOCTYPE svg PUBLIC "-//W3C//DTD SVG 1.1//EN" "http://www.w3.org/Graphics/SVG/1.1/DTD/svg11.dtd">
<svg xmlns="http://www.w3.org/2000/svg" width="23" height="22" viewBox="0 0 23 22" fill="none">
<g id="Group 836">
<path id="Vector" d="M8.25875 8.90143C6.11416 8.90143 4.36954 10.646 4.36954 12.7904C4.36954 14.935 6.11414 16.6798 8.25875 16.6798C10.4033 16.6798 12.148 14.9352 12.148 12.7904C12.148 10.646 10.4033 8.90143 8.25875 8.90143ZM8.25875 15.722C6.64244 15.722 5.32738 14.4067 5.32738 12.7904C5.32738 11.1743 6.64243 9.85928 8.25875 9.85928C9.87507 9.85928 11.1901 11.1743 11.1901 12.7904C11.1901 14.407 9.87506 15.722 8.25875 15.722Z" fill="black" stroke="black" stroke-width="0.2"/>
<path id="Vector_2" d="M8.05529 12.3936L8.1274 12.2935L8.05529 12.3936ZM8.05529 12.3936L7.93193 12.3938L8.05529 12.3936ZM9.32661 12.292L9.32648 12.292L9.70418 13.0658L9.62545 13.0041L9.70427 13.0656L9.70424 13.0657C9.81737 12.9212 9.83729 12.7251 9.75731 12.5607L9.75724 12.5606C9.67707 12.3964 9.51008 12.292 9.32711 12.292H9.32661ZM8.32105 14.8373L8.24214 14.7759L8.32096 14.8375C8.32099 14.8374 8.32102 14.8374 8.32105 14.8373ZM7.56613 14.2481L7.64496 14.3096L7.56615 14.248C7.56614 14.2481 7.56614 14.2481 7.56613 14.2481ZM8.34443 13.2511L8.47142 13.251L8.54957 13.1509L8.42257 13.151L8.34443 13.2511Z" fill="black" stroke="black" stroke-width="0.2"/>
<path id="Vector_3" d="M19.1821 1.70725L20.0314 0.85794C20.2185 0.670856 20.5215 0.670856 20.7086 0.85794C20.8957 1.04477 20.8957 1.34833 20.7086 1.53516L19.1821 1.70725ZM19.1821 1.70725L18.2623 0.787461L18.1916 0.716738L18.1208 0.787472L17.3597 1.54884C16.2288 2.67977 16.1288 4.44807 17.0543 5.69458C16.8174 5.9055 16.5973 6.1777 16.4217 6.53501C15.7736 7.85403 16.355 8.96359 16.845 9.89865L16.8508 9.90976C17.3247 10.8142 17.6993 11.5416 17.2687 12.4181C16.8383 13.2942 16.0338 13.4421 15.0281 13.6195L15.0281 13.6195C14.7515 13.6683 14.462 13.7207 14.1745 13.7936V5.95339C14.1745 5.13198 13.5065 4.46401 12.6851 4.46401H3.84361C3.02221 4.46401 2.35424 5.13198 2.35424 5.95338C2.35424 5.95338 2.35424 5.95339 2.35424 5.95339L2.35299 20.1261H0.96205C0.697405 20.1261 0.48313 20.3403 0.48313 20.605C0.48313 20.8696 0.697405 21.0839 0.96205 21.0839H15.4873C15.752 21.0839 15.9663 20.8696 15.9663 20.605C15.9663 20.3403 15.752 20.1261 15.4873 20.1261H14.1747V14.7868C14.4844 14.6902 14.8259 14.6278 15.1948 14.5624L15.2071 14.5603C16.2466 14.3768 17.4806 14.1591 18.1285 12.8403C18.7767 11.5209 18.1951 10.411 17.7051 9.47586L17.6994 9.46504L17.6108 9.51145L17.6994 9.46503C17.2255 8.56082 16.8511 7.83348 17.2815 6.95715C17.3998 6.71658 17.5496 6.52702 17.7395 6.37158C18.2959 6.77727 18.953 6.98301 19.6115 6.98301C20.4261 6.98301 21.2408 6.67238 21.862 6.05062C21.862 6.05062 21.862 6.0506 21.8621 6.0506L22.6234 5.28925L22.6941 5.21853L22.6234 5.14782L21.6938 4.21843L22.5428 3.36944L19.1821 1.70725ZM21.0163 3.54124L19.8593 2.38446L20.7085 1.53522L21.0163 3.54124ZM21.0163 3.54124L21.8656 2.69217C22.0526 2.50514 22.3559 2.50503 22.5428 2.69217C22.7298 2.8792 22.73 3.1825 22.5428 3.36938L21.0163 3.54124ZM13.2166 5.95339V20.1261H3.31083L3.31208 5.9534V5.95339C3.31208 5.66052 3.55074 5.42186 3.84361 5.42186H12.6851C12.978 5.42186 13.2166 5.66052 13.2166 5.95339ZM21.1843 5.37366L21.1843 5.37368C20.7643 5.79394 20.2059 6.02517 19.6113 6.02517C19.0164 6.02517 18.4578 5.79371 18.0372 5.37366C17.1694 4.50583 17.1694 3.09363 18.0372 2.2258L18.1918 2.07118L21.3394 5.21854L21.1843 5.37366Z" fill="black" stroke="black" stroke-width="0.2"/>
</g>
</svg>